HIERARCHY
ROOT Hips
{
	OFFSET 0.000000 0.000000 0.000000
	CHANNELS 6 Xposition Yposition Zposition Xrotation Yrotation Zrotation
	JOINT LeftUpLeg_virtual
	{
		OFFSET 0.000000 0.000000 0.000000
		CHANNELS 3 Xrotation Yrotation Zrotation
		JOINT LeftUpLeg
		{
			OFFSET 13.026900 -6.336304 -1.092800
			CHANNELS 3 Xrotation Yrotation Zrotation
			JOINT LeftLeg
			{
				OFFSET 0.524474 -46.096886 9.782700
				CHANNELS 3 Xrotation Yrotation Zrotation
				JOINT LeftFoot
				{
					OFFSET -0.524474 -53.427422 -12.948200
					CHANNELS 3 Xrotation Yrotation Zrotation
					JOINT LeftToeBase
					{
						OFFSET 0.192200 -14.009700 16.364100
						CHANNELS 3 Xrotation Yrotation Zrotation
						JOINT LeftToe_End
						{
							OFFSET -1.784700 -0.561700 9.474800
							CHANNELS 3 Xrotation Yrotation Zrotation
							End Site
							{
								OFFSET 0 0 0
							}
						}
					}
				}
			}
		}
	}
	JOINT RightUpLeg_virtual
	{
		OFFSET 0.000000 0.000000 0.000000
		CHANNELS 3 Xrotation Yrotation Zrotation
		JOINT RightUpLeg
		{
			OFFSET -12.883000 -6.336304 -1.092800
			CHANNELS 3 Xrotation Yrotation Zrotation
			JOINT RightLeg
			{
				OFFSET -0.524587 -46.096825 9.782800
				CHANNELS 3 Xrotation Yrotation Zrotation
				JOINT RightFoot
				{
					OFFSET 0.524587 -53.427383 -12.948300
					CHANNELS 3 Xrotation Yrotation Zrotation
					JOINT RightToeBase
					{
						OFFSET -0.192200 -14.009700 16.364100
						CHANNELS 3 Xrotation Yrotation Zrotation
						JOINT RightToe_End
						{
							OFFSET 1.784700 -0.561700 9.474800
							CHANNELS 3 Xrotation Yrotation Zrotation
							End Site
							{
								OFFSET 0 0 0
							}
						}
					}
				}
			}
		}
	}
	JOINT Spine_virtual
	{
		OFFSET 0.000000 0.000000 0.000000
		CHANNELS 3 Xrotation Yrotation Zrotation
		JOINT Spine
		{
			OFFSET 0.072000 7.257294 -0.789700
			CHANNELS 3 Xrotation Yrotation Zrotation
			JOINT Spine1
			{
				OFFSET 0.000000 12.508769 -0.658067
				CHANNELS 3 Xrotation Yrotation Zrotation
				JOINT Spine1_split
				{
					OFFSET 0.000000 12.508769 -0.658067
					CHANNELS 3 Xrotation Yrotation Zrotation
					JOINT Spine2
					{
						OFFSET 0.000000 12.508769 -0.658067
						CHANNELS 3 Xrotation Yrotation Zrotation
						JOINT Neck_virtual
						{
							OFFSET 0.000000 0.000000 0.000000
							CHANNELS 3 Xrotation Yrotation Zrotation
							JOINT Neck
							{
								OFFSET 0.000000 14.033295 7.520400
								CHANNELS 3 Xrotation Yrotation Zrotation
								JOINT Head
								{
									OFFSET 0.000000 8.198502 5.703100
									CHANNELS 3 Xrotation Yrotation Zrotation
									JOINT HeadTop_End
									{
										OFFSET 0.000000 17.760803 13.332701
										CHANNELS 3 Xrotation Yrotation Zrotation
										End Site
										{
											OFFSET 0 0 0
										}
									}
								}
							}
						}
						JOINT LeftShoulder_virtual
						{
							OFFSET 0.000000 0.000000 0.000000
							CHANNELS 3 Xrotation Yrotation Zrotation
							JOINT LeftShoulder
							{
								OFFSET 6.292450 5.785301 -0.669000
								CHANNELS 3 Xrotation Yrotation Zrotation
								JOINT LeftShoulder_split
								{
									OFFSET 6.292450 5.785301 -0.669000
									CHANNELS 3 Xrotation Yrotation Zrotation
									JOINT LeftArm
									{
										OFFSET 13.907140 -6.093903 1.965100
										CHANNELS 3 Xrotation Yrotation Zrotation
										JOINT LeftForeArm
										{
											OFFSET 34.140198 0.000000 0.000000
											CHANNELS 3 Xrotation Yrotation Zrotation
											JOINT LeftHand
											{
												OFFSET 40.960209 0.000000 0.000000
												CHANNELS 3 Xrotation Yrotation Zrotation
												End Site
												{
													OFFSET 0 0 0
												}
											}
										}
									}
								}
							}
						}
						JOINT RightShoulder_virtual
						{
							OFFSET 0.000000 0.000000 0.000000
							CHANNELS 3 Xrotation Yrotation Zrotation
							JOINT RightShoulder
							{
								OFFSET -6.292450 5.785301 -0.669000
								CHANNELS 3 Xrotation Yrotation Zrotation
								JOINT RightShoulder_split
								{
									OFFSET -6.292450 5.785301 -0.669000
									CHANNELS 3 Xrotation Yrotation Zrotation
									JOINT RightArm
									{
										OFFSET -13.907140 -6.093903 1.965100
										CHANNELS 3 Xrotation Yrotation Zrotation
										JOINT RightForeArm
										{
											OFFSET -34.140198 0.000000 0.000000
											CHANNELS 3 Xrotation Yrotation Zrotation
											JOINT RightHand
											{
												OFFSET -40.960209 0.000000 0.000000
												CHANNELS 3 Xrotation Yrotation Zrotation
												End Site
												{
													OFFSET 0 0 0
												}
											}
										}
									}
								}
							}
						}
					}
				}
			}
		}
	}
}
MOTION
Frames: 5
Frame Time: 0.03333333
1.302403 111.148834 6.224228 0.000000 0.000000 0.000000 23.487458 12.675106 1.566655 -39.375159 13.510294 17.354233 29.253639 5.549573 -4.455387 0.669487 25.360981 -14.459096 -8.522553 -0.892770 -0.508790 0.000000 0.000000 0.000000 24.982790 11.273925 1.815885 -65.128217 -9.883411 -10.819421 36.409850 4.520356 -4.212063 3.535706 -7.937856 2.470248 0.531643 -0.233893 -0.290923 0.000000 0.000000 0.000000 21.964765 12.259703 3.195522 12.082618 -0.804492 1.749131 8.783178 2.183812 -2.992849 0.368778 -0.794952 0.529858 0.000000 0.000000 0.000000 9.557762 2.139290 -3.317685 -7.735419 5.384773 -0.169488 -23.098607 -1.095616 -9.817419 0.000000 0.000000 0.000000 10.580214 1.999060 -2.786547 1.510812 4.243260 -8.712361 -0.167870 -2.663214 -1.355055 -28.723657 -0.989260 -58.315254 2.181705 -41.653909 0.088294 0.000000 0.000000 0.000000 9.346439 1.614851 -3.086801 4.338867 23.275437 3.634129 -0.090365 5.063343 -0.465134 -20.767299 -13.945159 62.880327 -0.198632 36.382061 0.974483 0.000000 0.000000 0.000000 
1.479573 112.670044 8.820663 0.000000 0.000000 0.000000 22.833046 12.204845 1.812114 -40.236118 12.380741 16.264620 26.525583 6.971751 -4.356626 1.111712 25.611973 -13.543850 -6.897312 -0.758813 -0.870459 0.000000 0.000000 0.000000 25.274775 10.415426 2.026358 -62.696984 -10.088432 -11.135322 34.534680 4.297758 -4.291462 4.126614 -8.360941 2.314509 -0.755017 -0.257501 -0.082168 0.000000 0.000000 0.000000 22.633119 11.851223 2.989441 11.550099 -0.175367 2.207093 8.724889 2.414756 -2.864817 0.248029 0.245907 1.043626 0.000000 0.000000 0.000000 9.481039 2.296598 -3.250789 -7.430582 4.865292 -0.327187 -23.276798 -1.256322 -9.967548 0.000000 0.000000 0.000000 10.483092 2.160516 -2.710001 1.558059 4.924517 -8.213988 -1.218639 -0.892085 -1.379207 -27.157829 1.271821 -57.071787 1.523800 -40.249755 -0.228316 0.000000 0.000000 0.000000 9.405420 1.832302 -3.023305 4.566703 23.014415 3.524116 -0.983273 4.818787 -1.572580 -21.772584 -16.203750 62.032277 -0.264362 36.219438 1.067044 0.000000 0.000000 0.000000 
1.819174 114.339676 12.188423 0.000000 0.000000 0.000000 21.889196 13.670782 2.134540 -42.235912 10.653496 14.171455 23.920060 7.864539 -4.120328 3.745458 25.090753 -14.688651 -3.320712 -0.666233 -1.273567 0.000000 0.000000 0.000000 24.752098 11.091694 2.333209 -58.388166 -11.213948 -12.315425 32.554509 4.020981 -4.274384 3.114962 -9.056208 1.859069 -2.519431 -0.195106 0.107954 0.000000 0.000000 0.000000 23.226600 12.044843 2.993048 11.217337 0.933473 2.835355 8.695601 2.947362 -2.407720 0.307468 0.408679 1.014463 0.000000 0.000000 0.000000 9.475684 2.763946 -2.776452 -7.282093 4.115542 -0.951541 -24.210879 -1.548267 -10.692628 0.000000 0.000000 0.000000 10.265300 2.641482 -2.322645 1.540195 4.975343 -8.021273 -1.653056 0.380095 -1.155927 -23.689548 4.218338 -54.957112 0.874217 -39.753118 -0.510762 0.000000 0.000000 0.000000 9.448520 2.359287 -2.600946 4.868309 22.523102 2.825809 -1.668639 4.595057 -2.262992 -24.355123 -18.588753 59.808763 -0.579443 37.100754 1.316714 0.000000 0.000000 0.000000 
2.281876 115.092590 16.085751 0.000000 0.000000 0.000000 20.704732 15.939985 2.588714 -44.789881 8.964990 11.468365 22.464038 8.134516 -3.779946 7.346600 23.748423 -16.946587 -0.916895 -0.707710 -1.095406 0.000000 0.000000 0.000000 23.514388 12.845947 2.741994 -53.459259 -13.215917 -13.982034 31.548777 3.877020 -4.072536 0.787352 -9.848060 1.571867 -4.146384 -0.040816 0.183318 0.000000 0.000000 0.000000 23.144936 13.191245 3.124472 11.179435 2.345081 3.454616 8.670389 3.672385 -1.734408 0.430162 -0.026833 0.788278 0.000000 0.000000 0.000000 9.553275 3.452324 -1.987227 -7.389648 3.207287 -1.834031 -25.660952 -2.130047 -11.788038 0.000000 0.000000 0.000000 9.933194 3.373818 -1.681973 1.521852 4.313611 -7.965361 -1.390222 0.688634 -0.825436 -19.359102 6.804384 -53.040227 0.461970 -40.281939 -0.666546 0.000000 0.000000 0.000000 9.473339 3.117856 -1.904774 5.133480 22.064018 1.716897 -2.353467 4.446478 -2.498278 -28.122092 -19.856132 56.484394 -0.950869 38.524456 1.552868 0.000000 0.000000 0.000000 
2.664251 114.365990 20.298744 0.000000 0.000000 0.000000 19.345713 18.164384 3.141012 -47.124596 8.159005 8.741242 22.380358 8.426637 -3.444378 9.008441 22.247444 -17.733343 -1.373354 -0.834817 -0.276742 0.000000 0.000000 0.000000 22.150589 14.902436 3.154316 -48.822271 -15.920124 -15.404704 31.948811 3.975165 -3.794202 -3.131959 -10.767430 1.687895 -5.368278 0.167283 0.024898 0.000000 0.000000 0.000000 22.244212 15.097332 3.219579 11.380220 3.935821 4.003281 8.623399 4.483142 -0.934847 0.249981 0.001181 0.374027 0.000000 0.000000 0.000000 9.639298 4.233730 -1.038350 -7.775717 2.161602 -2.734554 -27.234797 -3.132211 -12.902923 0.000000 0.000000 0.000000 9.531050 4.235138 -0.877918 1.539855 3.197083 -7.927509 -1.069739 0.391874 -0.416367 -14.898821 8.435197 -51.953622 0.429569 -41.521932 -0.595973 0.000000 0.000000 0.000000 9.439200 3.992634 -1.052843 5.254874 21.834155 0.572807 -2.702474 4.313771 -2.653258 -32.502589 -19.024645 52.584913 -1.164647 40.042305 1.591557 0.000000 0.000000 0.000000 
